<?xml version="1.0" encoding="UTF-8" standalone="no"?>
<!DOCTYPE svg PUBLIC "-//W3C//DTD SVG 1.1//EN" "http://www.w3.org/Graphics/SVG/1.1/DTD/svg11.dtd">
<svg xmlns="http://www.w3.org/2000/svg" version="1.1" viewBox="0.00 0.00 192.00 192.00">
<path fill="#35aabf" d="
  M 0.00 58.97
  L 0.00 57.71
  Q 1.08 55.04 2.99 54.22
  Q 42.71 37.14 82.46 20.17
  C 84.74 19.20 86.02 20.74 86.12 22.98
  Q 87.11 45.71 89.74 68.31
  Q 89.81 68.91 89.26 69.15
  L 21.81 99.33
  Q 21.23 99.58 20.94 99.02
  Q 14.72 86.61 11.62 73.07
  Q 11.46 72.37 10.82 72.69
  C 8.96 73.61 7.75 73.21 6.69 71.39
  Q 3.13 65.25 0.00 58.97
  Z"
/>
<path fill="#35aabf" d="
  M 40.51 131.00
  A 0.45 0.44 -31.3 0 1 39.95 130.87
  Q 32.26 120.47 26.04 109.13
  A 0.70 0.70 0.0 0 1 26.37 108.15
  L 90.92 79.28
  A 0.58 0.57 -20.0 0 1 91.71 79.64
  L 97.99 101.20
  Q 98.11 101.62 97.72 101.82
  L 40.51 131.00
  Z"
/>
<path fill="#35aabf" d="
  M 192.00 151.28
  L 192.00 152.05
  C 191.23 155.25 185.56 156.53 182.75 157.57
  Q 182.25 157.76 182.25 158.29
  L 182.25 159.58
  A 1.08 1.07 77.4 0 1 181.64 160.55
  C 179.30 161.66 171.96 165.90 171.15 161.37
  Q 171.05 160.82 170.52 161.03
  C 125.15 179.10 81.12 175.90 47.19 139.37
  Q 46.77 138.91 47.32 138.63
  L 101.82 110.86
  A 0.59 0.58 62.5 0 1 102.60 111.11
  C 116.72 136.88 137.62 151.28 168.00 148.60
  Q 168.65 148.54 168.55 147.89
  L 168.26 146.12
  A 0.59 0.59 0.0 0 1 168.63 145.47
  L 175.21 142.89
  Q 175.79 142.66 176.35 142.94
  L 177.35 143.43
  A 1.14 1.12 47.0 0 0 178.26 143.47
  L 184.08 141.26
  A 1.62 1.62 0.0 0 1 186.02 141.90
  L 192.00 151.28
  Z"
/>
</svg>
