<?xml version="1.0" encoding="UTF-8" standalone="no"?>
<!-- Created with Inkscape (http://www.inkscape.org/) -->

<svg
   width="1280"
   height="350"
   viewBox="0 0 338.66666 92.604168"
   version="1.1"
   id="svg1"
   xml:space="preserve"
   sodipodi:docname="drawing.svg"
   inkscape:export-filename="drawing.svg"
   inkscape:export-xdpi="96"
   inkscape:export-ydpi="96"
   xmlns:inkscape="http://www.inkscape.org/namespaces/inkscape"
   xmlns:sodipodi="http://sodipodi.sourceforge.net/DTD/sodipodi-0.dtd"
   xmlns="http://www.w3.org/2000/svg"
   xmlns:svg="http://www.w3.org/2000/svg"
   xmlns:rdf="http://www.w3.org/1999/02/22-rdf-syntax-ns#"
   xmlns:cc="http://creativecommons.org/ns#"><sodipodi:namedview
     id="namedview1"
     pagecolor="#ffffff"
     bordercolor="#000000"
     borderopacity="0.25"
     inkscape:showpageshadow="2"
     inkscape:pageopacity="0.0"
     inkscape:pagecheckerboard="0"
     inkscape:deskcolor="#d1d1d1"
     inkscape:document-units="px"
     inkscape:zoom="0.44631734"
     inkscape:cx="611.6724"
     inkscape:cy="395.45853"
     inkscape:window-width="1366"
     inkscape:window-height="699"
     inkscape:window-x="0"
     inkscape:window-y="0"
     inkscape:window-maximized="1"
     inkscape:current-layer="layer1" /><defs
     id="defs1" /><g
     inkscape:label="Layer 1"
     inkscape:groupmode="layer"
     id="layer1"><g
       style="fill:#7543b3;fill-opacity:1"
       id="g2"
       transform="matrix(3.8739648,0,0,3.8739648,-5.9540733,1.3018894)"><path
         d="m 19.620279,3.0049412 c -12.9166664,0 -14.6388887,12.0555648 -15.4999998,17.2222308 0.574077,0 1.1476459,0 1.7207067,0 0.5734742,-2.870169 2.0091618,-4.448844 4.3070711,-4.736111 3.444445,-0.430555 6.027778,-3.444444 6.888889,-6.0277863 L 15.745279,8.6021636 c 0.287009,-0.2870342 0.574103,-0.574077 0.861112,-0.8611111 0.861111,-0.8611112 1.725838,-2.1527779 3.013888,-4.7361113 z"
         id="path1-5"
         style="fill:#7543b3;fill-opacity:1;stroke-width:0.861111" /></g><g
       id="g1"
       transform="matrix(0.41698924,0,0,0.41698924,0,6.3484962)"
       style="fill:#00d8ff;fill-opacity:1"><path
         fill="#35aabf"
         d="M 0,58.97 V 57.71 Q 1.08,55.04 2.99,54.22 42.71,37.14 82.46,20.17 c 2.28,-0.97 3.56,0.57 3.66,2.81 q 0.99,22.73 3.62,45.33 0.07,0.6 -0.48,0.84 L 21.81,99.33 q -0.58,0.25 -0.87,-0.31 -6.22,-12.41 -9.32,-25.95 -0.16,-0.7 -0.8,-0.38 C 8.96,73.61 7.75,73.21 6.69,71.39 Q 3.13,65.25 0,58.97 Z"
         id="path1"
         style="fill:#00d8ff;fill-opacity:1" /><path
         fill="#35aabf"
         d="m 40.51,131 a 0.45,0.44 -31.3 0 1 -0.56,-0.13 q -7.69,-10.4 -13.91,-21.74 a 0.7,0.7 0 0 1 0.33,-0.98 L 90.92,79.28 a 0.58,0.57 -20 0 1 0.79,0.36 l 6.28,21.56 q 0.12,0.42 -0.27,0.62 z"
         id="path2"
         style="fill:#00d8ff;fill-opacity:1" /><path
         fill="#35aabf"
         d="m 192,151.28 v 0.77 c -0.77,3.2 -6.44,4.48 -9.25,5.52 q -0.5,0.19 -0.5,0.72 v 1.29 a 1.08,1.07 77.4 0 1 -0.61,0.97 c -2.34,1.11 -9.68,5.35 -10.49,0.82 q -0.1,-0.55 -0.63,-0.34 C 125.15,179.1 81.12,175.9 47.19,139.37 q -0.42,-0.46 0.13,-0.74 l 54.5,-27.77 a 0.59,0.58 62.5 0 1 0.78,0.25 c 14.12,25.77 35.02,40.17 65.4,37.49 q 0.65,-0.06 0.55,-0.71 l -0.29,-1.77 a 0.59,0.59 0 0 1 0.37,-0.65 l 6.58,-2.58 q 0.58,-0.23 1.14,0.05 l 1,0.49 a 1.14,1.12 47 0 0 0.91,0.04 l 5.82,-2.21 a 1.62,1.62 0 0 1 1.94,0.64 z"
         id="path3"
         style="fill:#00d8ff;fill-opacity:1" /></g><path
       style="font-weight:bold;font-size:49.5279px;font-family:Poppins;-inkscape-font-specification:'Poppins Bold';fill:#ffffff;stroke-width:0.195813"
       d="m 121.4372,26.012809 v 6.785322 h -14.16498 v 7.330129 h 10.59897 v 6.587211 H 107.27222 V 60.781395 H 98.802946 V 26.012809 Z m 12.92682,-1.882061 v 36.650647 h -8.46927 V 24.130748 Z m 4.45752,22.782835 q 0,-4.2594 1.58489,-7.478713 1.63442,-3.219314 4.40798,-4.95279 2.77357,-1.733477 6.19099,-1.733477 2.92215,0 5.10138,1.18867 2.22875,1.188669 3.41742,3.120258 v -3.912705 h 8.46927 v 27.636569 h -8.46927 v -3.912704 q -1.2382,1.931588 -3.46695,3.120258 -2.17923,1.188669 -5.10138,1.188669 -3.36789,0 -6.14146,-1.733476 -2.77356,-1.783005 -4.40798,-5.002318 -1.58489,-3.268842 -1.58489,-7.528241 z m 20.70266,0.04953 q 0,-3.169786 -1.783,-5.002318 -1.73348,-1.832533 -4.2594,-1.832533 -2.52593,0 -4.30893,1.832533 -1.73348,1.783004 -1.73348,4.95279 0,3.169785 1.73348,5.051846 1.783,1.832532 4.30893,1.832532 2.52592,0 4.2594,-1.832532 1.783,-1.832533 1.783,-5.002318 z m 25.85361,14.214507 q -3.61554,0 -6.43863,-1.238197 -2.82309,-1.238198 -4.45751,-3.367898 -1.63442,-2.179227 -1.83253,-4.853734 h 8.37022 q 0.14858,1.436309 1.33725,2.327811 1.18867,0.891503 2.92214,0.891503 1.5849,0 2.42687,-0.594335 0.8915,-0.643863 0.8915,-1.634421 0,-1.188669 -1.23819,-1.733476 -1.2382,-0.594335 -4.01176,-1.287726 -2.97168,-0.69339 -4.95279,-1.436309 -1.98112,-0.792446 -3.41743,-2.426867 -1.43631,-1.683949 -1.43631,-4.507039 0,-2.377339 1.28773,-4.308927 1.33725,-1.981116 3.86317,-3.120258 2.57545,-1.139142 6.09194,-1.139142 5.20043,0 8.1721,2.575451 3.0212,2.575451 3.46695,6.83485 h -7.82541 q -0.19811,-1.436309 -1.28772,-2.278283 -1.04009,-0.841974 -2.77356,-0.841974 -1.48584,0 -2.27829,0.594334 -0.79244,0.544807 -0.79244,1.535365 0,1.18867 1.23819,1.783005 1.28773,0.594335 3.96224,1.188669 3.07073,0.792447 5.00231,1.584893 1.93159,0.742919 3.3679,2.476395 1.48584,1.683949 1.53537,4.556567 0,2.426867 -1.38679,4.358455 -1.33725,1.882061 -3.9127,2.971674 -2.52592,1.089614 -5.89382,1.089614 z m 33.28278,-0.396223 -8.41975,-11.589529 v 11.589529 h -8.46927 V 24.130748 h 8.46927 V 44.38766 l 8.37022,-11.242834 h 10.45039 l -11.49048,13.867813 11.58953,13.768756 z m 34.76859,-17.830044 q 3.0212,0.643862 4.85373,3.021202 1.83253,2.327811 1.83253,5.349013 0,4.358455 -3.07073,6.933906 -3.0212,2.525923 -8.46927,2.525923 H 232.37982 V 26.012809 h 15.65082 q 5.29948,0 8.27116,2.426867 3.0212,2.426867 3.0212,6.587211 0,3.070729 -1.63442,5.101373 -1.5849,2.030644 -4.2594,2.823091 z m -12.58009,-2.872619 h 5.54713 q 2.08017,0 3.16978,-0.891502 1.13914,-0.94103 1.13914,-2.724034 0,-1.783005 -1.13914,-2.724035 -1.08961,-0.94103 -3.16978,-0.94103 h -5.54713 z m 6.24052,13.867813 q 2.1297,0 3.26884,-0.94103 1.18867,-0.990558 1.18867,-2.823091 0,-1.832532 -1.2382,-2.872618 -1.18867,-1.040086 -3.31837,-1.040086 h -6.14146 v 7.676825 z M 273.48799,24.13075 v 36.650647 h -8.46927 V 24.130748 Z m 18.72155,37.04687 q -4.06129,0 -7.33013,-1.733476 -3.21931,-1.733477 -5.10137,-4.95279 -1.83254,-3.219314 -1.83254,-7.528241 0,-4.2594 1.88206,-7.478713 1.88207,-3.268842 5.15091,-5.002318 3.26884,-1.733477 7.33013,-1.733477 4.06128,0 7.33013,1.733477 3.26884,1.733476 5.1509,5.002318 1.88206,3.219313 1.88206,7.478713 0,4.259399 -1.93159,7.528241 -1.88206,3.219313 -5.20043,4.95279 -3.26884,1.733476 -7.33013,1.733476 z m 0,-7.330129 q 2.42687,0 4.11082,-1.783005 1.73347,-1.783004 1.73347,-5.101373 0,-3.31837 -1.68395,-5.101374 -1.63442,-1.783005 -4.06128,-1.783005 -2.4764,0 -4.11082,1.783005 -1.63442,1.733476 -1.63442,5.101374 0,3.318369 1.58489,5.101373 1.63442,1.783005 4.06129,1.783005 z m 29.46905,-21.098886 q 2.92215,0 5.10138,1.18867 2.22875,1.188669 3.41742,3.120258 v -3.912705 h 8.46927 v 27.587041 q 0,3.813648 -1.53536,6.884378 -1.48584,3.120258 -4.6061,4.95279 -3.07073,1.832533 -7.67682,1.832533 -6.14146,0 -9.95511,-2.922146 -3.81365,-2.872619 -4.35845,-7.825409 h 8.37021 q 0.39622,1.584893 1.88206,2.476395 1.48584,0.94103 3.66507,0.94103 2.62497,0 4.16034,-1.535365 1.58489,-1.485837 1.58489,-4.804206 v -3.912704 q -1.2382,1.931588 -3.41742,3.169786 -2.17923,1.188669 -5.10138,1.188669 -3.41742,0 -6.19098,-1.733476 -2.77357,-1.783005 -4.40799,-5.002318 -1.58489,-3.268842 -1.58489,-7.528241 0,-4.2594 1.58489,-7.478713 1.63442,-3.219314 4.40799,-4.95279 2.77356,-1.733477 6.19098,-1.733477 z m 8.5188,14.214508 q 0,-3.169786 -1.783,-5.002318 -1.73348,-1.832533 -4.2594,-1.832533 -2.52592,0 -4.30893,1.832533 -1.73348,1.783004 -1.73348,4.95279 0,3.169785 1.73348,5.051846 1.78301,1.832532 4.30893,1.832532 2.52592,0 4.2594,-1.832532 1.783,-1.832533 1.783,-5.002318 z"
       id="text20"
       aria-label="FlaskBlog" /></g><metadata
     id="metadata2"><rdf:RDF><cc:Work
         rdf:about=""><cc:license
           rdf:resource="http://creativecommons.org/publicdomain/zero/1.0/" /></cc:Work><cc:License
         rdf:about="http://creativecommons.org/publicdomain/zero/1.0/"><cc:permits
           rdf:resource="http://creativecommons.org/ns#Reproduction" /><cc:permits
           rdf:resource="http://creativecommons.org/ns#Distribution" /><cc:permits
           rdf:resource="http://creativecommons.org/ns#DerivativeWorks" /></cc:License></rdf:RDF></metadata></svg>
