<?xml version="1.0" encoding="UTF-8" standalone="no"?>
<!-- Created with Inkscape (http://www.inkscape.org/) -->

<svg
   width="800"
   height="800"
   viewBox="0 0 211.66666 211.66667"
   version="1.1"
   id="svg1"
   xml:space="preserve"
   sodipodi:docname="drawing.svg"
   inkscape:export-filename="Documents/flb_logo_full_w.svg"
   inkscape:export-xdpi="96"
   inkscape:export-ydpi="96"
   xmlns:inkscape="http://www.inkscape.org/namespaces/inkscape"
   xmlns:sodipodi="http://sodipodi.sourceforge.net/DTD/sodipodi-0.dtd"
   xmlns="http://www.w3.org/2000/svg"
   xmlns:svg="http://www.w3.org/2000/svg"
   xmlns:rdf="http://www.w3.org/1999/02/22-rdf-syntax-ns#"
   xmlns:cc="http://creativecommons.org/ns#"><sodipodi:namedview
     id="namedview1"
     pagecolor="#ffffff"
     bordercolor="#000000"
     borderopacity="0.25"
     inkscape:showpageshadow="2"
     inkscape:pageopacity="0.0"
     inkscape:pagecheckerboard="0"
     inkscape:deskcolor="#d1d1d1"
     inkscape:document-units="px"
     inkscape:zoom="0.44631734"
     inkscape:cx="611.6724"
     inkscape:cy="395.45853"
     inkscape:window-width="1366"
     inkscape:window-height="699"
     inkscape:window-x="0"
     inkscape:window-y="0"
     inkscape:window-maximized="1"
     inkscape:current-layer="layer1" /><defs
     id="defs1" /><g
     inkscape:label="Layer 1"
     inkscape:groupmode="layer"
     id="layer1"><g
       style="fill:#7543b3;fill-opacity:1"
       id="g2"
       transform="matrix(10.241936,0,0,10.241936,-15.741295,-13.137576)"><path
         d="m 19.620279,3.0049412 c -12.9166664,0 -14.6388887,12.0555648 -15.4999998,17.2222308 0.574077,0 1.1476459,0 1.7207067,0 0.5734742,-2.870169 2.0091618,-4.448844 4.3070711,-4.736111 3.444445,-0.430555 6.027778,-3.444444 6.888889,-6.0277863 L 15.745279,8.6021636 c 0.287009,-0.2870342 0.574103,-0.574077 0.861112,-0.8611111 0.861111,-0.8611112 1.725838,-2.1527779 3.013888,-4.7361113 z"
         id="path1-5"
         style="fill:#7543b3;fill-opacity:1;stroke-width:0.861111" /></g><g
       id="g1"
       transform="matrix(1.1024305,0,0,1.1024305,4.4999999e-6,0.20457609)"
       style="fill:#00d8ff;fill-opacity:1"><path
         fill="#35aabf"
         d="M 0,58.97 V 57.71 Q 1.08,55.04 2.99,54.22 42.71,37.14 82.46,20.17 c 2.28,-0.97 3.56,0.57 3.66,2.81 q 0.99,22.73 3.62,45.33 0.07,0.6 -0.48,0.84 L 21.81,99.33 q -0.58,0.25 -0.87,-0.31 -6.22,-12.41 -9.32,-25.95 -0.16,-0.7 -0.8,-0.38 C 8.96,73.61 7.75,73.21 6.69,71.39 Q 3.13,65.25 0,58.97 Z"
         id="path1"
         style="fill:#00d8ff;fill-opacity:1" /><path
         fill="#35aabf"
         d="m 40.51,131 a 0.45,0.44 -31.3 0 1 -0.56,-0.13 q -7.69,-10.4 -13.91,-21.74 a 0.7,0.7 0 0 1 0.33,-0.98 L 90.92,79.28 a 0.58,0.57 -20 0 1 0.79,0.36 l 6.28,21.56 q 0.12,0.42 -0.27,0.62 z"
         id="path2"
         style="fill:#00d8ff;fill-opacity:1" /><path
         fill="#35aabf"
         d="m 192,151.28 v 0.77 c -0.77,3.2 -6.44,4.48 -9.25,5.52 q -0.5,0.19 -0.5,0.72 v 1.29 a 1.08,1.07 77.4 0 1 -0.61,0.97 c -2.34,1.11 -9.68,5.35 -10.49,0.82 q -0.1,-0.55 -0.63,-0.34 C 125.15,179.1 81.12,175.9 47.19,139.37 q -0.42,-0.46 0.13,-0.74 l 54.5,-27.77 a 0.59,0.58 62.5 0 1 0.78,0.25 c 14.12,25.77 35.02,40.17 65.4,37.49 q 0.65,-0.06 0.55,-0.71 l -0.29,-1.77 a 0.59,0.59 0 0 1 0.37,-0.65 l 6.58,-2.58 q 0.58,-0.23 1.14,0.05 l 1,0.49 a 1.14,1.12 47 0 0 0.91,0.04 l 5.82,-2.21 a 1.62,1.62 0 0 1 1.94,0.64 z"
         id="path3"
         style="fill:#00d8ff;fill-opacity:1" /></g></g><metadata
     id="metadata2"><rdf:RDF><cc:Work
         rdf:about=""><cc:license
           rdf:resource="http://creativecommons.org/publicdomain/zero/1.0/" /></cc:Work><cc:License
         rdf:about="http://creativecommons.org/publicdomain/zero/1.0/"><cc:permits
           rdf:resource="http://creativecommons.org/ns#Reproduction" /><cc:permits
           rdf:resource="http://creativecommons.org/ns#Distribution" /><cc:permits
           rdf:resource="http://creativecommons.org/ns#DerivativeWorks" /></cc:License></rdf:RDF></metadata></svg>
